<?xml version="1.0" standalone="no"?>
<!DOCTYPE svg PUBLIC "-//W3C//DTD SVG 20010904//EN"
 "http://www.w3.org/TR/2001/REC-SVG-20010904/DTD/svg10.dtd">
<svg version="1.0" xmlns="http://www.w3.org/2000/svg"
 width="657.000000pt" height="380.000000pt" viewBox="0 0 657.000000 380.000000"
 preserveAspectRatio="xMidYMid meet">
<metadata>
Created by potrace 1.16, written by Peter Selinger 2001-2019
</metadata>
<g transform="translate(0.000000,380.000000) scale(0.100000,-0.100000)"
fill="#000000" stroke="none">
<path d="M3527 3439 c-21 -5 -62 -20 -92 -34 l-53 -26 -33 20 c-19 11 -53 23
-76 27 -73 11 -228 -24 -326 -73 -42 -21 -53 -23 -83 -13 -76 25 -219 -37
-312 -135 -32 -33 -65 -71 -73 -85 l-17 -25 -22 20 c-17 16 -40 21 -101 24
-71 3 -85 0 -141 -27 -66 -31 -112 -68 -141 -114 -26 -41 -39 -147 -26 -208 6
-28 8 -54 5 -57 -3 -4 -18 -1 -33 6 -50 23 -146 25 -202 5 -75 -27 -114 -64
-154 -146 -43 -91 -44 -94 -56 -198 -7 -61 -19 -106 -42 -155 -31 -65 -33 -77
-32 -165 2 -96 23 -192 57 -255 25 -47 20 -98 -13 -147 -73 -108 -79 -267 -16
-395 33 -66 46 -81 118 -135 81 -59 82 -61 85 -107 8 -139 84 -221 207 -221
31 0 72 7 92 15 46 19 53 19 53 -3 0 -10 4 -22 9 -28 5 -5 14 -27 21 -48 16
-50 126 -160 201 -201 102 -55 275 -43 419 31 36 19 71 34 78 34 8 0 33 -20
56 -44 63 -64 105 -81 201 -80 59 0 91 5 120 20 l40 20 23 -27 c12 -15 48 -40
80 -56 50 -24 71 -28 166 -32 118 -4 200 9 253 41 37 22 72 87 82 155 4 27 11
47 17 46 5 -1 46 -9 91 -18 57 -12 118 -16 195 -13 118 3 111 1 241 71 51 27
137 137 137 175 0 4 21 30 48 58 62 65 117 148 133 204 10 35 31 63 96 128 46
45 83 86 83 92 0 5 16 35 36 66 39 60 45 77 75 197 14 58 19 113 19 211 0 92
5 149 16 186 12 40 15 84 12 170 -3 110 -5 118 -43 195 -39 79 -89 138 -126
150 -10 4 -21 16 -23 28 -2 12 -10 54 -16 92 -17 99 -34 130 -84 155 -23 11
-54 20 -69 20 -24 0 -27 4 -27 38 -1 96 -91 236 -181 283 -73 37 -281 49 -391
23 -22 -5 -29 -2 -34 12 -21 68 -106 178 -162 211 -24 14 -69 32 -101 39 -63
15 -206 17 -264 3z m-261 -80 c76 -19 123 -99 64 -107 -44 -6 -190 -81 -190
-97 0 -29 48 -37 94 -16 22 10 50 22 61 26 31 11 224 35 281 35 93 0 174 12
174 26 0 22 -98 47 -187 46 -46 0 -83 2 -83 4 0 1 30 20 66 40 91 51 173 57
258 21 81 -34 130 -85 182 -192 52 -107 59 -169 22 -181 -25 -7 -38 -22 -38
-41 0 -9 19 -13 63 -13 83 0 227 -33 273 -62 5 -4 30 -14 54 -22 56 -19 72 -7
44 31 -48 64 -155 113 -247 113 -25 0 -48 4 -51 8 -3 5 -8 31 -12 59 l-6 50
48 19 c59 23 137 22 219 -1 77 -23 98 -47 113 -133 6 -38 21 -90 32 -116 14
-35 20 -69 20 -127 0 -62 3 -81 15 -85 8 -4 47 1 86 10 65 15 72 14 96 -1 25
-17 26 -19 19 -103 -3 -47 -7 -94 -9 -105 -2 -17 6 -21 53 -26 30 -3 62 -9 71
-13 39 -17 109 -143 109 -196 0 -20 -3 -39 -6 -43 -4 -3 -23 20 -44 51 -52 80
-82 109 -136 132 -59 26 -93 25 -155 -1 -27 -12 -51 -20 -53 -18 -2 2 -6 18
-9 36 -5 25 -1 39 18 62 14 16 25 36 25 44 0 8 8 25 18 38 64 83 11 75 -80
-13 l-28 -26 0 25 c0 72 -97 175 -216 229 -71 32 -81 34 -182 34 -71 0 -116
-5 -133 -14 l-26 -13 5 66 c3 52 0 75 -13 102 -44 86 -141 129 -292 129 -156
0 -254 -54 -300 -166 -20 -48 -33 -57 -33 -21 0 34 -48 97 -86 113 -81 34
-191 8 -346 -82 -40 -23 -109 -88 -129 -121 -28 -45 -29 -162 -3 -239 10 -29
15 -56 12 -59 -3 -4 -26 3 -51 14 -34 16 -66 21 -126 21 -62 0 -81 3 -81 14 0
7 -7 19 -15 26 -8 7 -15 19 -15 28 0 9 -10 31 -22 49 -28 41 -78 60 -178 68
-97 7 -147 21 -159 44 -6 9 -13 40 -17 68 -8 64 23 160 71 219 75 92 208 80
375 -34 73 -50 79 -15 8 49 -50 45 -47 59 27 132 74 73 166 117 245 117 59 0
60 0 75 -36 16 -38 20 -93 8 -95 -5 -1 -55 -4 -113 -8 -86 -5 -105 -9 -108
-22 -2 -10 11 -25 31 -38 28 -17 50 -21 119 -21 78 0 88 2 126 30 60 43 79
135 36 171 -8 6 -14 16 -14 22 0 23 75 66 145 83 65 16 77 16 131 3z m482
-385 c34 -7 108 -73 122 -109 5 -12 8 -123 7 -246 -2 -304 28 -535 80 -624 60
-103 124 -142 84 -52 -28 62 -48 133 -61 212 -6 39 -16 95 -22 125 -5 30 -12
125 -15 210 -6 175 -9 167 71 194 151 50 284 -14 354 -169 65 -142 152 -440
152 -521 0 -16 6 -38 13 -48 12 -16 17 -17 36 -6 22 11 23 14 16 139 -4 70 -4
137 -1 149 10 31 73 64 124 65 39 0 48 -5 93 -49 27 -26 49 -53 49 -60 0 -6
17 -60 38 -120 37 -108 37 -111 36 -259 -1 -164 -12 -211 -77 -320 -68 -112
-112 -158 -232 -237 -49 -33 -93 -68 -97 -79 -11 -28 25 -61 57 -53 28 7 34
-11 15 -46 -9 -17 -14 -18 -36 -8 -30 14 -40 3 -50 -52 -8 -50 -14 -62 -68
-133 -64 -85 -235 -134 -434 -124 -66 3 -129 10 -140 16 -17 9 -22 25 -27 88
-4 43 -14 98 -21 123 -8 25 -14 59 -14 76 0 54 -48 142 -63 117 -3 -5 -8 -44
-12 -88 -8 -89 1 -137 42 -225 21 -43 26 -70 26 -134 l1 -79 -45 -40 c-24 -22
-69 -51 -99 -66 -101 -47 -265 -26 -328 42 -25 27 -82 139 -82 160 0 9 -11 29
-24 44 -19 21 -27 25 -36 16 -9 -8 -8 -24 4 -66 26 -90 23 -111 -24 -132 -47
-21 -98 -17 -183 16 -60 23 -85 51 -105 119 -36 122 -47 150 -59 150 -9 0 -13
-16 -13 -59 0 -57 -1 -60 -41 -92 -56 -44 -109 -61 -210 -67 -76 -4 -90 -2
-135 21 -56 29 -130 98 -175 165 -28 42 -30 49 -20 83 6 20 11 41 11 48 0 22
-42 10 -93 -28 -86 -64 -112 -74 -188 -69 -85 5 -111 25 -128 102 -20 88 8
169 88 257 17 18 31 39 31 47 0 20 -28 26 -53 10 -34 -23 -97 -91 -97 -105 0
-35 -44 -8 -129 78 -51 51 -72 81 -81 114 -16 58 -9 127 19 189 l23 48 31 -30
c56 -54 110 -72 219 -72 l96 0 17 -52 c9 -29 19 -96 22 -149 l5 -96 -34 -54
c-19 -30 -53 -76 -76 -102 -46 -53 -48 -57 -30 -75 27 -27 94 -7 142 43 82 86
101 240 48 390 -16 44 -43 109 -59 145 -51 108 -51 104 9 148 83 61 121 75
194 70 35 -2 64 0 64 4 0 5 -9 21 -20 36 -11 15 -25 60 -31 100 -10 62 -10 85
6 158 21 99 70 208 111 245 91 83 314 77 415 -11 l41 -35 -1 -85 c-1 -105 -31
-204 -87 -292 -15 -22 -15 -29 -5 -42 12 -14 16 -14 45 1 66 34 94 88 111 214
8 55 -10 276 -30 383 -23 120 -20 181 14 252 17 36 44 74 67 92 111 92 299 97
345 10 7 -13 15 -25 18 -28 21 -16 41 -64 41 -96 0 -20 -8 -64 -17 -98 -26
-89 -25 -444 1 -531 18 -63 41 -105 55 -105 18 0 20 31 6 77 -34 118 -43 275
-25 454 18 180 44 273 98 345 24 33 143 118 177 127 30 7 108 8 143 1z m-1678
-334 c36 -11 94 -23 130 -26 128 -12 168 -31 190 -89 19 -49 13 -72 -22 -86
-18 -7 -45 -21 -59 -32 -26 -18 -26 -18 -90 13 -35 17 -82 38 -104 45 -46 17
-162 20 -200 5 -36 -14 -30 -44 10 -47 65 -6 172 -28 205 -42 46 -21 100 -62
100 -76 0 -6 -13 -36 -29 -66 -16 -30 -31 -70 -35 -89 l-6 -36 -70 -2 c-114
-3 -194 -51 -244 -147 -38 -73 -35 -115 19 -221 25 -49 45 -96 45 -105 0 -13
-14 -18 -56 -24 -47 -6 -62 -3 -102 18 -66 34 -77 61 -76 187 1 83 5 116 22
158 26 62 28 88 7 96 -14 5 -42 -26 -81 -90 -20 -33 -29 -5 -29 94 0 85 3 104
27 152 15 31 32 87 37 126 6 38 17 86 25 105 17 39 93 115 151 151 85 52 135
58 235 28z m68 -672 c4 -70 -8 -93 -48 -101 -16 -4 -42 -14 -56 -24 -38 -24
-84 -91 -85 -122 l-1 -26 -8 27 c-4 14 -12 32 -16 40 -14 21 -43 111 -44 132
0 29 38 84 79 112 31 21 45 24 106 22 l70 -3 3 -57z"/>
<path d="M2393 2883 c-4 -11 1 -22 16 -32 61 -43 89 -73 99 -109 15 -48 16
-139 2 -147 -13 -8 -13 -52 0 -60 38 -24 96 66 85 132 -16 97 -66 172 -137
208 -59 30 -57 29 -65 8z"/>
<path d="M3637 2533 c-21 -21 3 -404 40 -624 l16 -96 -34 -51 c-41 -63 -94
-102 -174 -130 -72 -24 -252 -45 -355 -40 l-75 3 -32 49 c-18 27 -37 71 -43
98 -13 64 -13 248 1 400 12 129 5 159 -27 126 -13 -13 -18 -52 -25 -190 -5
-95 -11 -190 -14 -211 -3 -21 0 -79 6 -130 l12 -91 52 -53 c29 -29 65 -55 79
-59 14 -3 26 -9 26 -13 0 -5 -26 -34 -58 -67 -33 -32 -64 -68 -70 -79 -10 -18
-22 -20 -129 -21 -84 -1 -131 -6 -163 -19 -127 -48 -232 5 -300 150 -36 76
-64 111 -120 148 -34 23 -70 22 -70 -2 0 -18 45 -71 60 -71 4 0 11 -8 14 -17
4 -10 18 -38 31 -63 36 -66 33 -86 -13 -94 -60 -9 -150 -82 -128 -103 3 -3 33
6 66 21 94 43 120 44 193 8 79 -39 106 -66 89 -90 -33 -48 -46 -92 -50 -177
-4 -107 7 -148 41 -143 20 3 22 9 28 93 9 126 22 168 69 215 62 61 188 86 295
58 32 -9 44 -16 41 -28 -14 -51 -16 -97 -6 -152 13 -69 69 -246 94 -294 20
-38 62 -78 70 -66 7 11 -4 82 -13 82 -19 0 -71 213 -71 288 0 107 57 236 138
316 40 39 61 51 108 62 78 18 119 18 135 -3 10 -12 14 -52 15 -152 0 -192 26
-278 109 -363 49 -51 75 -61 75 -27 0 20 -17 59 -30 69 -3 3 -20 30 -37 60
-39 69 -53 138 -54 255 0 108 16 151 77 205 83 73 143 77 259 20 68 -35 86
-49 115 -93 42 -64 79 -153 80 -190 0 -15 8 -44 17 -65 13 -26 19 -72 23 -161
3 -79 9 -126 16 -128 6 -2 15 4 19 14 13 34 29 218 29 353 1 85 6 143 13 156
7 13 31 26 60 34 92 25 173 88 220 170 39 70 54 189 42 353 -18 261 -36 353
-87 430 -39 59 -66 46 -41 -20 29 -77 72 -392 66 -483 -8 -112 -44 -240 -76
-268 -56 -49 -173 -94 -277 -108 l-51 -6 -84 77 c-46 42 -92 89 -102 105 -34
54 -63 261 -78 572 -7 128 -17 239 -22 246 -11 13 -20 15 -30 5z"/>
<path d="M2472 2209 c-58 -59 -66 -90 -67 -244 0 -122 3 -149 23 -205 28 -78
93 -188 141 -240 39 -42 106 -74 143 -68 38 5 26 30 -35 71 -100 66 -179 201
-212 360 -18 86 -18 91 0 160 10 40 29 94 42 121 38 75 18 100 -35 45z"/>
<path d="M4763 1797 c-6 -6 -20 -34 -33 -62 -72 -158 -127 -238 -201 -291 -57
-42 -63 -64 -18 -64 41 0 59 11 126 78 110 109 141 163 149 265 7 73 -2 101
-23 74z"/>
<path d="M1762 2488 c-20 -26 -24 -111 -7 -161 l16 -47 -35 -30 c-49 -43 -89
-115 -82 -146 8 -29 22 -31 31 -4 9 28 110 103 168 125 26 10 52 27 58 37 8
16 5 21 -22 32 -50 21 -89 88 -89 153 0 54 -14 69 -38 41z"/>
</g>
</svg>
