<?xml version="1.0" standalone="no"?>
<!DOCTYPE svg PUBLIC "-//W3C//DTD SVG 20010904//EN"
 "http://www.w3.org/TR/2001/REC-SVG-20010904/DTD/svg10.dtd">
<svg version="1.0" xmlns="http://www.w3.org/2000/svg"
 width="200.000000pt" height="200.000000pt" viewBox="0 0 200.000000 200.000000"
 preserveAspectRatio="xMidYMid meet">
<metadata>
Created by potrace 1.16, written by Peter Selinger 2001-2019
</metadata>
<g transform="translate(0.000000,200.000000) scale(0.100000,-0.100000)"
fill="#000000" stroke="none">
<path d="M970 1898 c-224 -20 -501 -175 -582 -324 -39 -72 -49 -125 -52 -254
-3 -142 -18 -181 -118 -285 -92 -98 -95 -128 -14 -174 72 -40 80 -55 53 -104
l-22 -38 29 -23 c18 -15 24 -26 17 -30 -18 -11 -13 -32 14 -64 28 -33 31 -71
14 -151 -26 -123 67 -154 342 -114 154 22 154 22 193 -122 16 -60 35 -109 42
-112 13 -5 795 45 801 51 1 1 -25 72 -59 157 -56 139 -62 161 -62 229 -1 96
24 152 124 275 117 143 164 268 163 425 -1 146 -47 272 -139 380 -70 82 -131
127 -249 185 -166 82 -314 110 -495 93z m250 -210 c25 -12 77 -24 118 -28 82
-8 110 -23 157 -88 17 -22 35 -41 41 -41 20 -1 64 -42 80 -73 8 -16 18 -62 21
-101 4 -43 14 -84 25 -102 10 -16 18 -43 18 -60 0 -33 -31 -108 -49 -119 -6
-4 -16 -28 -23 -53 -12 -51 -69 -115 -149 -169 -49 -34 -89 -99 -89 -147 0
-25 -3 -27 -40 -27 l-40 0 0 109 c0 59 5 121 10 137 6 16 33 49 62 73 l51 45
28 -32 c23 -26 34 -31 54 -26 14 3 25 10 25 16 0 18 -22 53 -50 78 -28 25 -28
26 -17 87 9 53 14 64 36 71 28 10 91 59 91 71 0 4 -11 14 -24 21 -22 11 -28
10 -56 -14 -39 -32 -45 -32 -66 -1 -9 13 -40 36 -70 51 -54 26 -67 47 -43 71
14 14 -5 53 -26 53 -19 0 -45 -39 -45 -67 0 -20 -5 -23 -35 -23 -23 0 -35 5
-35 14 0 8 -13 25 -28 38 -26 22 -27 26 -16 53 21 48 18 57 -18 53 -27 -2 -34
-9 -41 -35 -8 -28 -16 -33 -72 -47 l-63 -16 -37 35 c-41 40 -71 45 -80 14 -5
-16 2 -28 30 -53 l38 -32 -17 -31 c-9 -18 -26 -39 -38 -47 -20 -14 -24 -13
-65 24 -23 22 -49 40 -57 40 -8 0 -21 3 -30 6 -12 5 -16 -1 -16 -24 0 -24 6
-32 30 -42 27 -11 50 -36 50 -54 0 -3 -29 -6 -64 -6 -59 0 -66 -2 -90 -31 -25
-29 -34 -59 -18 -59 4 0 17 -3 30 -6 16 -5 22 -2 22 9 0 24 19 31 80 33 85 2
193 68 221 135 7 19 21 31 38 35 14 3 36 10 49 15 38 15 67 10 90 -14 l22 -24
-22 -41 c-20 -37 -27 -42 -58 -42 -41 0 -104 -31 -108 -53 -2 -9 6 -21 18 -27
17 -9 25 -8 40 5 9 9 34 19 54 22 31 5 36 3 36 -14 0 -32 21 -83 34 -83 7 0
20 6 30 13 16 12 16 15 1 51 -21 49 -13 101 19 121 35 23 158 -6 199 -47 28
-27 29 -33 24 -87 -6 -75 -23 -106 -97 -178 l-60 -60 0 -141 0 -142 -35 0 -35
0 0 144 c0 132 -2 146 -23 177 -13 19 -45 45 -77 61 -50 25 -61 26 -130 21
-58 -4 -83 -2 -106 10 -26 13 -41 14 -96 5 -166 -29 -293 63 -274 198 8 63 42
122 81 146 25 14 38 31 45 58 14 52 66 95 130 109 28 6 55 11 60 11 5 0 22 13
38 29 37 37 88 47 158 32 50 -11 57 -11 82 8 36 27 104 27 162 -1z"/>
</g>
</svg>
