<svg id="Layer_1" enable-background="new 0 0 511.992 511.992" height="512" viewBox="0 0 511.992 511.992" width="512" xmlns="http://www.w3.org/2000/svg"><g><g><g><path d="m7.5 7.518h274.384v363.466h-274.384z" fill="#ff91c1"/><circle cx="144.692" cy="189.251" fill="#ff5492" r="101.221"/><circle cx="144.692" cy="189.251" fill="#ff91c1" r="67.759"/><path d="m144.692 121.492c-6.967 0-13.691 1.059-20.021 3.021 27.491 8.529 47.781 34.17 47.781 64.738 0 30.403-20.129 56.191-47.759 64.744 6.324 1.958 13.041 3.015 20 3.015 37.362 0 67.759-30.397 67.759-67.759-.001-37.607-30.711-67.759-67.76-67.759z" fill="#ff7db6"/></g><g><path d="m187.608 111.652h274.384v363.466h-274.384z" fill="#e0efff" transform="matrix(.966 .26 -.26 .966 87.366 -74.304)"/><circle cx="324.8" cy="293.385" fill="#bfdeff" r="101.221"/><path d="m390.233 310.987c-10.658 35.81-46.956 57.537-83.035 47.831s-57.537-46.956-47.831-83.035 47.411-59.092 83.035-47.831c36.59 11.566 58.09 48.566 47.831 83.035z" fill="#e0efff"/><path d="m342.402 227.952c-13.113-4.145-26.504-3.633-38.68.451 35.779 12.034 56.645 48.535 46.511 82.584-6.875 23.098-24.422 40.319-45.692 47.043.879.275 1.76.546 2.657.787 36.08 9.706 72.377-12.021 83.036-47.831 10.258-34.468-11.242-71.468-47.832-83.034z" fill="#d4e8ff"/></g></g><g><path d="m510.991 149.788c-.993-1.724-2.63-2.982-4.551-3.499l-217.057-58.392v-80.379c0-4.142-3.357-7.5-7.5-7.5h-274.383c-4.142 0-7.5 3.358-7.5 7.5v363.466c0 4.142 3.358 7.5 7.5 7.5h144.571l-14.206 52.807c-1.076 4 1.294 8.115 5.294 9.191l264.963 71.279c3.673.987 8.194-1.591 9.19-5.294l94.421-350.987c.517-1.921.251-3.969-.742-5.692zm-495.991 213.696v-29.533h41.585c9.385 0 9.813-15 0-15h-41.585v-259.4h162.604c9.385 0 9.813-15 0-15h-162.604v-29.533h259.383v29.533h-42.683c-9.385 0-9.813 15 0 15h42.683v24.311l-32.907-8.852c-4.526-.773-7.589.992-9.191 5.294l-9.077 33.743c-20.465-21.408-48.577-33.516-78.516-33.516-59.949 0-108.721 48.772-108.721 108.721s48.772 108.721 108.721 108.721c10.334 0 20.434-1.428 30.18-4.244l-6.786 25.224h-55.732c-9.385 0-9.813 15 0 15h51.696l-7.945 29.533h-141.105zm197.025-207.864c-3.01-5.999-6.838-11.616-11.44-16.72-2.774-3.077-7.517-3.323-10.592-.548-3.077 2.774-3.322 7.516-.548 10.592 8.571 9.507 13.815 21.216 15.165 33.863.009.081.026.16.037.24l-11.161 41.488c-11.351 15.648-29.514 24.976-48.794 24.976-33.227 0-60.259-27.032-60.259-60.26 0-33.227 27.032-60.259 60.259-60.259 7.105 0 14.062 1.229 20.675 3.654 3.886 1.425 8.197-.571 9.623-4.46s-.571-8.198-4.46-9.623c-8.273-3.033-16.966-4.571-25.838-4.571-41.498 0-75.259 33.761-75.259 75.259 0 41.499 33.761 75.26 75.259 75.26 14.891 0 29.249-4.451 41.392-12.46l-6.513 24.211c-11.074 4.449-22.788 6.71-34.878 6.71-51.678 0-93.721-42.043-93.721-93.721s42.043-93.721 93.721-93.721c28.608 0 55.287 12.823 73.193 35.18.203.254.424.485.651.705zm192.752 339.708-250.478-67.382 7.672-28.519 40.157 10.803c8.843 2.376 13.504-11.901 3.896-14.485l-40.157-10.803 27.187-101.063c.032-.106.059-.213.086-.321l40.113-149.111 157.021 42.241c8.843 2.376 13.503-11.901 3.896-14.485l-157.021-42.241 7.672-28.519 250.479 67.382-7.672 28.519-41.219-11.088c-9.062-2.435-13.373 11.936-3.896 14.485l41.218 11.088-67.387 250.495-156.466-42.092c-9.062-2.435-13.373 11.936-3.896 14.485l156.466 42.092z"/><path d="m324.975 402.153c48.57 0 92.229-33.749 104.813-80.524 7.544-28.043 3.716-57.346-10.779-82.51s-37.922-43.177-65.966-50.722c-57.893-15.57-117.658 18.855-133.231 76.745-7.544 28.043-3.716 57.346 10.779 82.51s37.922 43.177 65.965 50.721c9.401 2.529 18.94 3.78 28.419 3.78zm-81.386-61.988c-12.496-21.692-15.795-46.952-9.292-71.126s22.031-44.369 43.723-56.864c14.422-8.308 30.419-12.55 46.628-12.55 8.171 0 16.396 1.079 24.498 3.258 49.904 13.425 79.582 64.946 66.157 114.85-13.248 49.244-65.606 79.405-114.851 66.156-24.173-6.504-44.368-22.032-56.863-43.724z"/><path d="m324.781 368.653c33.197-.001 63.669-22.167 72.694-55.717 4.837-17.979 2.841-37.033-5.621-53.653-1.879-3.691-6.395-5.161-10.086-3.281-3.691 1.879-5.16 6.395-3.281 10.086 6.775 13.308 8.374 28.562 4.504 42.951-8.521 31.672-42.14 51.066-73.846 42.537-32.086-8.632-51.168-41.758-42.536-73.845 8.633-32.085 41.756-51.169 73.845-42.536 6.861 1.846 13.259 4.84 19.016 8.899 3.39 2.388 8.066 1.577 10.452-1.808 2.387-3.385 1.577-8.064-1.808-10.451-7.201-5.077-15.196-8.82-23.764-11.125-40.07-10.779-81.445 13.051-92.226 53.125-10.78 40.073 13.051 81.446 53.125 92.227 6.523 1.753 13.078 2.591 19.532 2.591z"/></g></g></svg>