<svg id="nervous" enable-background="new 0 0 300 300" height="512" viewBox="0 0 300 300" width="512" xmlns="http://www.w3.org/2000/svg"><g><circle cx="176" cy="152" fill="#eaeaea" r="86"/><g fill="#4c241d"><circle cx="238" cy="74" r="4"/><path d="m202.57 116.688c-2.004 0-3.988-.492-5.805-1.461-2.906-1.555-5.031-4.148-5.988-7.305-.957-3.152-.625-6.492.93-9.398s4.148-5.031 7.301-5.988c3.148-.961 6.492-.629 9.398.93 2.906 1.555 5.031 4.148 5.988 7.301s.625 6.492-.926 9.398c-1.555 2.906-4.148 5.031-7.305 5.988-1.182.359-2.393.535-3.593.535zm.02-16.684c-.422 0-.848.062-1.262.188-1.109.336-2.02 1.086-2.566 2.105-.547 1.023-.664 2.195-.328 3.305s1.086 2.023 2.105 2.57c1.027.547 2.195.656 3.305.324 1.109-.336 2.023-1.086 2.57-2.105.543-1.023.66-2.195.324-3.305s-1.086-2.02-2.105-2.566c-.641-.344-1.34-.516-2.043-.516z"/><path d="m198.18 70.445c-1.023 0-2.047-.391-2.828-1.172-1.562-1.562-1.562-4.094 0-5.656l11.793-11.793c1.562-1.562 4.094-1.562 5.656 0s1.562 4.094 0 5.656l-11.793 11.793c-.781.782-1.805 1.172-2.828 1.172z"/><path d="m209.973 70.445c-1.023 0-2.047-.391-2.828-1.172l-11.793-11.793c-1.562-1.562-1.562-4.094 0-5.656s4.094-1.562 5.656 0l11.793 11.793c1.562 1.562 1.562 4.094 0 5.656-.781.782-1.805 1.172-2.828 1.172z"/><path d="m122.004 146c-1.293 0-2.559-.625-3.332-1.777-4.027-6.023-16.859-21.055-27.703-18.344-4.629 1.16-6.715 3.02-9.355 5.371-5.649 5.039-12.055 10.75-39.614 10.75-2.211 0-4-1.789-4-4s1.789-4 4-4c24.508 0 29.48-4.434 34.293-8.723 2.902-2.586 6.195-5.523 12.738-7.156 18.504-4.652 35.578 20.586 36.297 21.66 1.227 1.836.727 4.316-1.109 5.543-.68.457-1.453.676-2.215.676z"/><path d="m121.996 146c-1.711 0-3.289-1.105-3.82-2.824-.309-1.004-7.43-24.781 5.07-39.406 7.754-9.078 20.996-12.344 39.32-9.73 2.188.312 3.707 2.34 3.395 4.527s-2.32 3.711-4.527 3.395c-15.426-2.207-26.227.148-32.09 6.988-9.648 11.258-3.582 31.676-3.52 31.879.645 2.113-.543 4.348-2.652 4.992-.391.12-.789.179-1.176.179z"/><path d="m87.367 126.805c-.121 0-.246-.004-.367-.016-2.195-.203-3.812-2.137-3.621-4.328.027-.379.473-7.449-5.117-12.496-5.898-5.312-16.805-6.707-31.547-4.031-2.168.422-4.258-1.043-4.648-3.219-.398-2.172 1.043-4.254 3.219-4.648 17.609-3.207 30.555-1.16 38.453 6.07 8.531 7.805 7.648 18.578 7.609 19.031-.192 2.078-1.934 3.637-3.981 3.637z"/><path d="m82.004 110c-1.293 0-2.562-.625-3.332-1.781-1.223-1.836-.73-4.312 1.102-5.543.133-.09 9.285-6.379 10.125-15.094.465-4.859-1.797-9.824-6.727-14.754-20.93-20.93-21.172-38.105-21.172-38.828 0-2.211 1.789-4 4-4s4 1.789 4 4c.004.113.461 14.805 18.828 33.172 6.719 6.719 9.758 13.863 9.027 21.234-1.242 12.523-13.133 20.586-13.637 20.922-.683.453-1.452.672-2.214.672z"/><path d="m126.61 110c-.812 0-1.629-.246-2.34-.758-1.102-.797-10.781-8.035-10.621-16.539.051-2.746 1.156-6.715 6.133-10.031 11.254-7.504 21.793-21.875 18.34-35.703-.539-2.141.766-4.312 2.91-4.848 2.129-.547 4.312.766 4.848 2.91 4.398 17.582-8.145 35.289-21.66 44.297-2.539 1.691-2.562 3.07-2.57 3.523-.066 3.414 4.992 8.234 7.309 9.906 1.789 1.293 2.191 3.793.898 5.586-.783 1.083-2.005 1.657-3.247 1.657z"/><path d="m118.004 94c-.219 0-.438-.016-.66-.055l-24-4c-2.18-.363-3.652-2.426-3.289-4.602.363-2.18 2.422-3.672 4.602-3.289l24 4c2.18.363 3.652 2.426 3.289 4.602-.325 1.957-2.02 3.344-3.942 3.344z"/><path d="m72.067 55.996c-1.031 0-2.059-.395-2.844-1.184-1.555-1.57-1.539-4.105.027-5.66 5.289-5.234 8.906-16.273 8.945-16.383.68-2.098 2.93-3.254 5.035-2.574 2.102.68 3.254 2.93 2.578 5.031-.172.527-4.246 12.992-10.926 19.613-.78.77-1.8 1.157-2.815 1.157z"/><path d="m54.34 141.52c-.086 0-.168-.004-.254-.008-9.918-.621-14.988-15.375-15.906-18.324-.652-2.109.523-4.348 2.633-5.004 2.094-.668 4.348.516 5.008 2.625 1.625 5.203 5.578 12.52 8.766 12.719 2.203.137 3.879 2.039 3.742 4.242-.134 2.121-1.895 3.75-3.989 3.75z"/><path d="m54 158c-.98 0-1.961-.355-2.73-1.078-1.613-1.508-1.699-4.039-.191-5.652 5.793-6.203 10.898-13.531 10.922-15.684.023-2.195 1.809-3.977 4-3.977h.023c2.199.012 3.977 1.777 3.977 3.977 0 6.648-10.012 17.867-13.078 21.148-.79.84-1.856 1.266-2.923 1.266z"/><path d="m69.094 138.578c-.672 0-1.355-.168-1.98-.527-1.902-1.086-2.574-3.5-1.516-5.41.055-.105.875-1.762.27-3.266-.566-1.41-2.34-2.648-5.133-3.582-2.094-.695-3.227-2.961-2.527-5.059.699-2.094 2.945-3.234 5.059-2.527 5.246 1.746 8.641 4.559 10.094 8.359 1.918 5.02-.508 9.5-.789 9.996-.74 1.293-2.087 2.016-3.478 2.016z"/><path d="m154 118c-2.211 0-4-1.789-4-4 0-6.492-5.336-13.48-5.387-13.551-1.348-1.746-1.031-4.258.711-5.609 1.75-1.344 4.25-1.031 5.605.703.289.371 7.07 9.191 7.07 18.457.001 2.211-1.788 4-3.999 4z"/><path d="m142 102c-.418 0-.844-.066-1.266-.207-2.094-.695-3.227-2.961-2.527-5.059.371-1.121 9.414-27.473 28.762-22.613 2.145.535 3.449 2.707 2.91 4.848-.535 2.145-2.715 3.438-4.848 2.91-12.254-3.047-19.164 17.18-19.238 17.387-.558 1.675-2.117 2.734-3.793 2.734z"/><path d="m139.86 69.348c-.148 0-.297-.008-.449-.023-2.195-.246-3.773-2.227-3.531-4.422 1.395-12.469-17.531-14.836-18.336-14.93-2.191-.258-3.766-2.238-3.512-4.43.25-2.191 2.156-3.805 4.422-3.516 9.574 1.086 27.199 7.453 25.379 23.766-.231 2.043-1.962 3.555-3.973 3.555z"/><path d="m138.004 74c-1.469 0-2.879-.809-3.582-2.211-.988-1.977-.188-4.379 1.789-5.367l16-8c1.977-.984 4.379-.188 5.367 1.789s.188 4.379-1.789 5.367l-16 8c-.574.285-1.183.422-1.785.422z"/><path d="m65.301 64.355c-5.945 0-12.703-.582-17.09-2.777-1.977-.988-2.777-3.391-1.789-5.367.992-1.977 3.391-2.773 5.367-1.789 5.031 2.52 17.855 2.113 24.758 1.27 2.234-.328 4.191 1.289 4.457 3.48.27 2.195-1.289 4.188-3.48 4.457-1.043.129-6.215.726-12.223.726z"/><path d="m60 104.598c-1.57 0-3.062-.934-3.699-2.48l-6-14.598c-.84-2.043.137-4.379 2.18-5.219 2.035-.828 4.379.133 5.219 2.18l6 14.598c.84 2.043-.137 4.379-2.18 5.219-.496.202-1.012.3-1.52.3z"/><path d="m90 78c-1.023 0-2.047-.391-2.828-1.172-1.562-1.562-1.562-4.094 0-5.656 2.281-2.281 2.82-7.523 2.828-9.184.012-2.199 1.801-3.984 4-3.984h.012c2.203.008 3.988 1.793 3.988 3.996 0 .988-.145 9.801-5.172 14.828-.781.781-1.804 1.172-2.828 1.172z"/></g><g><path d="m174 230h-92c-13.234 0-24-10.766-24-24s10.766-24 24-24h41.047c4.109 0 6.18-2.738 6.879-3.918.699-1.176 2.113-4.305.145-7.91l-11.094-20.34c-2.117-3.879-.688-8.738 3.191-10.855 3.891-2.121 8.742-.684 10.855 3.191l11.094 20.34c4.098 7.508 3.934 16.383-.43 23.742-4.367 7.355-12.086 11.75-20.641 11.75h-41.046c-4.41 0-8 3.59-8 8s3.59 8 8 8h92c4.418 0 8 3.582 8 8s-3.582 8-8 8z" fill="#9dc1e4"/><path d="m174 234h-92c-15.438 0-28-12.562-28-28s12.563-28 28-28h41.047c1.883 0 2.91-1.066 3.438-1.957.535-.895.977-2.305.074-3.953l-11.094-20.344c-1.535-2.812-1.883-6.055-.98-9.133.906-3.074 2.953-5.613 5.766-7.148 5.809-3.164 13.117-1.02 16.285 4.789l11.094 20.34c4.777 8.754 4.59 19.109-.5 27.695-5.099 8.586-14.102 13.711-24.083 13.711h-41.047c-2.207 0-4 1.793-4 4s1.793 4 4 4h92c6.617 0 12 5.383 12 12s-5.383 12-12 12zm-92-48c-11.027 0-20 8.973-20 20s8.973 20 20 20h92c2.207 0 4-1.793 4-4s-1.793-4-4-4h-92c-6.617 0-12-5.383-12-12s5.383-12 12-12h41.047c7.129 0 13.562-3.66 17.199-9.793s3.773-13.531.359-19.781l-11.094-20.344c-1.059-1.93-3.48-2.656-5.43-1.594-.938.512-1.621 1.359-1.922 2.383-.301 1.027-.184 2.105.328 3.043l11.094 20.344c2.051 3.754 1.969 8.191-.219 11.867-2.18 3.676-6.035 5.875-10.316 5.875z" fill="#4c241d"/></g><path d="m230 250c-2.211 0-4-1.789-4-4s1.789-4 4-4c4.41 0 8-3.59 8-8s-3.59-8-8-8h-48c-2.211 0-4-1.789-4-4s1.789-4 4-4h48c8.824 0 16 7.176 16 16s-7.176 16-16 16z" fill="#4c241d"/><circle cx="222" cy="246" fill="#4c241d" r="8"/><circle cx="166" cy="262" fill="#4c241d" r="8"/><circle cx="222" cy="150" fill="#4c241d" r="8"/><circle cx="254" cy="198" fill="#4c241d" r="8"/><path d="m198 222c-2.211 0-4-1.789-4-4v-24c0-8.824 7.176-16 16-16 4.41 0 8-3.59 8-8v-16c0-2.211 1.789-4 4-4s4 1.789 4 4v16c0 8.824-7.176 16-16 16-4.41 0-8 3.59-8 8v24c0 2.211-1.789 4-4 4z" fill="#4c241d"/><path d="m218 226c-2.211 0-4-1.789-4-4 0-15.438 12.562-28 28-28h8c2.211 0 4 1.789 4 4s-1.789 4-4 4h-8c-11.027 0-20 8.973-20 20 0 2.211-1.789 4-4 4z" fill="#4c241d"/><path d="m181.289 266h-11.289c-2.211 0-4-1.789-4-4s1.789-4 4-4h11.289c11.422 0 20.711-9.289 20.711-20.711v-15.289c0-2.211 1.789-4 4-4s4 1.789 4 4v15.289c0 15.832-12.879 28.711-28.711 28.711z" fill="#4c241d"/></g><path d="m3067.5 311.252h-5.02c-2.211 0-4-1.789-4-4s1.789-4 4-4h5.02c2.211 0 4 1.789 4 4s-1.789 4-4 4z" fill="#4c241d"/></svg>