<svg id="Layer_1" enable-background="new 0 0 128 128" height="512" viewBox="0 0 128 128" width="512" xmlns="http://www.w3.org/2000/svg"><g><path d="m120.549 92.005c-.092-.029-8.726-2.897-9.533-11.012 3.288.597 5.853 1.625 8.326 6.229.184.343.536.538.899.538.163 0 .328-.039.481-.121.496-.266.682-.884.416-1.38-3.396-6.324-7.401-6.933-11.643-7.579-1.737-.265-3.525-.542-5.435-1.201l-4.593-3.249c-1.826-1.291-2.873-3.314-2.873-5.55s1.047-4.259 2.873-5.55l4.791-3.39c1.642.02 3.103-.188 4.42-.384 2.279-.337 4.123-.61 6.17.353.007.003.011.009.018.012.004.001.007.001.011.002.927.441 1.895 1.135 2.965 2.192.199.197.458.295.717.295.263 0 .526-.101.725-.303.396-.4.392-1.045-.008-1.442-.928-.917-1.809-1.596-2.659-2.108 1.327-2.096 3.882-2.962 3.935-2.98.535-.172.83-.746.659-1.281-.172-.537-.746-.832-1.282-.66-.154.049-3.465 1.146-5.164 4.047-2.223-.757-4.269-.459-6.385-.143-1.658.245-3.374.499-5.38.297-.052-.004-.099.013-.15.016l-4.973-.458c-2.227-.205-4.145-1.434-5.263-3.37s-1.223-4.212-.287-6.243l2.454-5.33c1.192-1.529 2.034-3.056 2.736-4.488 1.01-.518 4.796-2.3 8.526-1.97.558.055 1.056-.363 1.107-.924.05-.562-.363-1.056-.924-1.107-2.746-.246-5.455.477-7.359 1.187 1.538-3.09 3.213-5.331 8.453-6.412.552-.113.906-.653.793-1.205-.114-.552-.652-.905-1.205-.792-7.029 1.451-8.756 5.115-10.585 8.996-.803 1.705-1.635 3.462-2.963 5.224l-5.377 2.477c-2.033.936-4.307.83-6.244-.289-1.936-1.118-3.165-3.036-3.371-5.262l-.426-4.615c-.187-3.367-1.051-6.147-1.814-8.6-.053-.172-.105-.339-.157-.509 1.447-.131 5.861-.921 9.088-5.687.316-.466.194-1.1-.272-1.416s-1.101-.194-1.416.273c-3.2 4.723-7.699 4.818-7.884 4.82-.035 0-.065.016-.099.02-1.005-3.763-1.156-7.248 2.517-12.338.33-.456.227-1.093-.229-1.423-.457-.33-1.093-.227-1.423.23-5.065 7.015-3.611 11.688-2.071 16.635.615 1.976 1.241 4.011 1.554 6.351l-3.301 4.668c-1.291 1.825-3.314 2.872-5.55 2.872s-4.259-1.047-5.55-2.872l-3.327-4.704c-.588-2.579-1.592-4.634-2.508-6.452 7.689-6.188 4.488-16.566 4.453-16.673-.171-.537-.746-.831-1.28-.66-.536.17-.833.744-.663 1.279.119.375 2.699 8.846-3.439 14.169-1.425-3.032-2.08-5.718.242-10.411.25-.505.043-1.116-.461-1.366-.506-.25-1.117-.044-1.366.462-3.184 6.433-1.359 10.05.574 13.88.907 1.798 1.834 3.667 2.399 6.005l-.559 6.061c-.206 2.226-1.434 4.144-3.371 5.262-1.936 1.119-4.212 1.225-6.243.289l-5.424-2.498c-1.534-1.507-3.121-2.485-4.528-3.34-1.968-1.195-3.561-2.162-4.521-4.209-.004-.008-.003-.016-.007-.024-.002-.004-.006-.006-.008-.01-.431-.931-.732-2.083-.88-3.579-.055-.561-.548-.963-1.115-.915-.56.055-.97.554-.914 1.114.128 1.299.372 2.384.7 3.321-2.361.765-4.881-.201-4.931-.22-.524-.213-1.115.044-1.325.565-.211.523.042 1.116.564 1.327.104.042 1.694.668 3.712.668.897 0 1.878-.126 2.85-.479 1.228 1.999 2.99 3.076 4.817 4.185 1.39.844 2.825 1.725 4.203 3.091l2.463 5.348c.935 2.031.831 4.307-.287 6.243s-3.037 3.165-5.263 3.37l-5.715.527c-1.239-.817-5.816-3.518-11.91-3.314-.563.018-1.005.489-.986 1.051s.48 1.012 1.052.986c1.246-.041 2.422.06 3.513.241-1.571 1.321-4.756 3.214-9.98 2.983-.525-.012-1.038.412-1.063.974-.024.563.412 1.038.974 1.063.322.014.636.021.945.021 6.662 0 10.271-3.16 11.494-4.488 3.095.928 5.058 2.332 5.087 2.353.002.001.005.002.007.003.003.002.004.005.007.006l4.985 3.526c1.826 1.291 2.873 3.314 2.873 5.55s-1.047 4.259-2.873 5.55l-4.832 3.418c-2.1.414-3.798 1.165-5.292 1.841-3.06 1.381-5.27 2.377-9.514.044-.493-.27-1.114-.092-1.384.401-.272.494-.092 1.114.402 1.385 2.195 1.208 4.001 1.651 5.599 1.651.038 0 .075-.005.113-.005-.994 1.062-1.967 2.345-2.457 3.692-.192.53.081 1.114.61 1.306.115.042.232.062.348.062.417 0 .808-.257.958-.671.908-2.5 4.153-4.966 4.69-5.362.493-.203.981-.422 1.474-.645 1.493-.673 3.041-1.365 4.965-1.727l5.911.545c2.227.205 4.145 1.434 5.263 3.37s1.223 4.212.287 6.243l-2.432 5.281c-2.627 2.039-4.415 4.294-5.992 6.287-.105.133-.208.262-.312.393-1.348-1.374-4.332-3.683-9.202-3.683-.023 0-.046 0-.07 0-.563.003-1.018.461-1.015 1.024.002.562.458 1.015 1.019 1.015.022.001.043 0 .065 0 4.389 0 6.931 2.178 7.905 3.231-2.55 2.979-5.34 5.098-11.64 4.929-.568-.008-1.031.431-1.045.994s.43 1.03.993 1.045c.237.006.47.009.699.009 8.117 0 11.075-3.739 14.2-7.692 1.58-1.997 3.216-4.061 5.652-5.948l5.517-2.542c2.033-.936 4.308-.831 6.244.289 1.936 1.118 3.165 3.036 3.371 5.262l.525 5.696c-.967 2.579-1.23 4.93-1.461 7.005-.007.064-.014.125-.021.189-1.347-.399-4.737-1.011-8.484 1.35-.476.3-.619.93-.319 1.406.194.308.525.476.864.476.186 0 .374-.051.543-.157 3.56-2.243 6.657-1.201 7.134-1.018-.482 3.048-1.504 5.492-5.73 7.983-.485.286-.647.911-.36 1.396.19.323.53.502.879.502.176 0 .354-.046.517-.141 6.093-3.591 6.536-7.558 7.005-11.758.222-1.989.457-4.046 1.27-6.302.015-.018.035-.031.048-.05l3.526-4.986c1.291-1.825 3.314-2.872 5.55-2.872s4.259 1.047 5.55 2.872l3.39 4.793c.211 1.224 1.363 6.602 5.896 11.016.198.192.455.289.711.289.265 0 .531-.104.73-.309.393-.403.384-1.048-.019-1.442-.892-.868-1.635-1.785-2.26-2.697 2.04.217 5.609 1.199 9.068 5.121.202.229.482.345.765.345.239 0 .48-.084.674-.255.423-.372.463-1.017.091-1.439-4.807-5.454-9.952-5.91-11.843-5.868-1.314-2.556-1.738-4.723-1.817-5.194l.549-5.952c.206-2.226 1.434-4.144 3.371-5.262 1.937-1.119 4.213-1.225 6.243-.289l5.345 2.462c.944 1.341 1.967 2.402 2.896 3.355 2.343 2.403 4.035 4.14 3.29 8.928-.087.556.294 1.077.851 1.164.053.008.106.012.158.012.494 0 .927-.359 1.006-.863.394-2.531.176-4.408-.398-5.927 1.336.571 2.871 1.046 4.302 1.046.563 0 1.019-.456 1.019-1.019 0-.564-.456-1.02-1.019-1.02-2.657 0-6.078-2.203-6.639-2.576-.36-.394-.733-.78-1.111-1.167-1.005-1.031-2.032-2.113-2.945-3.499l-2.412-5.238c-.935-2.031-.831-4.307.287-6.243s3.037-3.165 5.263-3.37l6.08-.561c.006 0 .011-.004.017-.004 1.773.555 3.432.823 4.951 1.055.586 9.853 10.897 13.259 11.004 13.294.103.033.207.048.31.048.432 0 .833-.277.971-.71.171-.534-.125-1.108-.662-1.279z" fill="#e6e7e8"/><g><path d="m69.188 32.606 3.526-4.985.561 6.08c.496 5.372 6.155 8.64 11.055 6.383l5.546-2.554-2.554 5.546c-2.257 4.9 1.011 10.56 6.383 11.055l6.08.561-4.985 3.526c-4.405 3.115-4.405 9.65 0 12.766l4.985 3.526-6.08.561c-5.372.496-8.64 6.155-6.383 11.055l2.554 5.546-5.546-2.554c-4.9-2.257-10.56 1.011-11.055 6.383l-.561 6.08-3.526-4.985c-3.115-4.405-9.65-4.405-12.766 0l-3.526 4.985-.561-6.08c-.496-5.372-6.155-8.64-11.055-6.383l-5.546 2.554 2.554-5.546c2.257-4.9-1.011-10.56-6.383-11.055l-6.08-.561 4.985-3.526c4.405-3.115 4.405-9.65 0-12.766l-4.985-3.526 6.08-.561c5.372-.496 8.64-6.155 6.383-11.055l-2.554-5.546 5.546 2.554c4.9 2.257 10.56-1.011 11.055-6.383l.561-6.08 3.526 4.985c3.116 4.405 9.651 4.405 12.766 0z" fill="#d4fbff"/><circle cx="62.806" cy="64.601" fill="#6dc9f7" r="14.273"/><path d="m62.806 53.387c7.366 0 13.425 5.581 14.189 12.744.054-.503.084-1.012.084-1.529 0-7.883-6.39-14.273-14.273-14.273s-14.273 6.39-14.273 14.273c0 .517.031 1.026.084 1.529.763-7.164 6.823-12.744 14.189-12.744z" fill="#fff"/><circle cx="63.825" cy="61.543" fill="#0089ef" r="4.078"/><g fill="#3a2c60"><path d="m72.866 73.259c-1.281 1.486-2.902 2.691-4.689 3.483-.505.224-.733.814-.509 1.319.166.373.531.595.915.595.135 0 .273-.027.405-.086 2.056-.911 3.921-2.297 5.394-4.007.36-.418.313-1.05-.105-1.41-.418-.357-1.049-.311-1.411.106z"/><path d="m62.806 49.328c-8.421 0-15.273 6.852-15.273 15.273s6.852 15.273 15.273 15.273c.636 0 1.278-.04 1.909-.119.548-.068.937-.568.868-1.116-.069-.549-.565-.936-1.117-.868-.548.068-1.106.104-1.66.104-7.319 0-13.273-5.954-13.273-13.273s5.954-13.273 13.273-13.273 13.273 5.954 13.273 13.273c0 2.02-.442 3.959-1.313 5.764-.24.497-.032 1.095.466 1.335.497.238 1.094.032 1.335-.466 1.003-2.078 1.512-4.31 1.512-6.633 0-8.423-6.852-15.274-15.273-15.274z"/><path d="m115.281 83.135c.18.337.525.527.882.527.16 0 .322-.038.472-.119.486-.261.669-.867.408-1.354-3.391-6.315-7.392-6.925-11.628-7.569-1.739-.264-3.529-.541-5.441-1.203l-4.595-3.25c-1.831-1.295-2.881-3.324-2.881-5.566s1.05-4.271 2.881-5.566l4.798-3.394c1.643.02 3.104-.188 4.422-.383 2.282-.338 4.129-.611 6.179.353.007.003.011.009.018.012.004.001.008.001.011.002.929.442 1.899 1.137 2.971 2.197.195.192.449.289.703.289.258 0 .516-.099.711-.297.389-.393.385-1.025-.008-1.414-.933-.922-1.818-1.603-2.673-2.115 1.334-2.125 3.928-2.997 3.957-3.007.524-.169.813-.73.646-1.256-.169-.526-.734-.815-1.257-.647-.154.049-3.47 1.148-5.162 4.054-2.225-.761-4.272-.463-6.39-.15-1.658.247-3.372.501-5.384.297-.055-.005-.104.013-.157.016l-4.966-.458c-2.233-.206-4.157-1.438-5.278-3.38s-1.226-4.225-.288-6.262l2.455-5.331c1.193-1.531 2.035-3.059 2.738-4.492 1.008-.516 4.82-2.309 8.543-1.976.549.05 1.036-.356 1.085-.907.049-.55-.357-1.035-.907-1.085-2.77-.244-5.496.492-7.399 1.207 1.547-3.121 3.215-5.382 8.491-6.47.541-.111.889-.641.777-1.182s-.641-.889-1.182-.777c-7.02 1.448-8.745 5.11-10.571 8.986-.804 1.707-1.638 3.466-2.968 5.231l-5.382 2.478c-2.036.938-4.318.834-6.261-.288-1.942-1.121-3.174-3.045-3.38-5.278l-.427-4.623c-.188-3.361-1.051-6.138-1.813-8.587-.056-.179-.11-.355-.164-.531 1.418-.124 5.856-.895 9.098-5.681.31-.457.19-1.079-.267-1.389-.458-.311-1.08-.191-1.389.268-3.206 4.732-7.714 4.826-7.9 4.828-.04 0-.074.018-.113.023-1.011-3.775-1.169-7.267 2.515-12.372.324-.447.223-1.072-.225-1.396-.449-.323-1.072-.222-1.396.226-5.059 7.007-3.606 11.675-2.068 16.617.616 1.979 1.243 4.017 1.556 6.363l-3.305 4.674c-1.295 1.83-3.324 2.881-5.567 2.881-2.242-.001-4.271-1.051-5.566-2.881l-3.329-4.706c-.589-2.586-1.597-4.645-2.515-6.467 7.695-6.179 4.494-16.554 4.46-16.662-.168-.525-.731-.814-1.256-.647s-.816.729-.65 1.256c.119.376 2.709 8.875-3.464 14.206-1.435-3.046-2.101-5.738.232-10.451.245-.495.042-1.095-.452-1.34-.496-.245-1.096-.042-1.34.453-3.18 6.424-1.356 10.036.574 13.862.908 1.799 1.836 3.67 2.401 6.011l-.56 6.064c-.206 2.233-1.438 4.157-3.38 5.278-1.943 1.121-4.224 1.225-6.261.288l-5.408-2.49c-1.539-1.517-3.133-2.491-4.546-3.349-2.873-1.744-4.949-3.005-5.425-7.836-.054-.55-.533-.946-1.093-.897-.549.054-.951.543-.897 1.093.128 1.305.375 2.395.705 3.335-2.373.78-4.911-.195-4.963-.215-.513-.21-1.093.042-1.3.554s.041 1.095.553 1.302c.104.041 1.691.667 3.705.667.899 0 1.883-.128 2.857-.485 1.226 2.005 2.99 3.082 4.819 4.193 1.392.845 2.828 1.727 4.208 3.096l2.465 5.352c.938 2.037.833 4.319-.288 6.262-1.122 1.941-3.045 3.174-5.278 3.38l-5.719.527c-1.224-.817-5.792-3.545-11.908-3.313-.552.018-.985.479-.967 1.031s.452.993 1.032.967c1.256-.039 2.441.065 3.541.251-1.574 1.322-4.784 3.245-10.009 3.013-.52-.031-1.018.404-1.042.955-.024.552.404 1.019.956 1.043.321.014.636.021.944.021 6.661 0 10.267-3.162 11.484-4.485 3.105.929 5.08 2.333 5.109 2.355.002.001.004.002.007.003.003.002.004.005.007.006l4.985 3.526c1.831 1.295 2.881 3.324 2.881 5.566s-1.05 4.271-2.881 5.566l-4.835 3.42c-2.099.413-3.798 1.165-5.293 1.841-3.063 1.382-5.277 2.381-9.531.043-.484-.266-1.091-.09-1.358.394s-.09 1.093.394 1.358c2.19 1.205 3.994 1.648 5.589 1.648.055 0 .107-.006.161-.007-1.004 1.066-1.992 2.36-2.486 3.72-.188.52.08 1.093.599 1.281.113.041.228.061.341.061.409 0 .792-.252.94-.658.912-2.51 4.172-4.984 4.701-5.373.492-.203.981-.422 1.473-.645 1.494-.674 3.044-1.367 4.972-1.729l5.914.545c2.233.206 4.157 1.438 5.278 3.38s1.226 4.225.288 6.262l-2.435 5.286c-2.627 2.038-4.416 4.293-5.992 6.287-.11.139-.217.273-.325.41-1.338-1.369-4.322-3.693-9.204-3.693-.022 0-.046 0-.068 0-.552.003-.998.452-.996 1.005.002.551.45.995 1 .995.019-.001.042 0 .063 0 4.415 0 6.964 2.199 7.932 3.25-2.557 2.988-5.352 5.115-11.666 4.95-.556-.031-1.011.423-1.025.975s.422 1.011.974 1.025c.237.006.469.009.698.009 8.107 0 11.063-3.735 14.186-7.684 1.581-2 3.219-4.065 5.658-5.954l5.519-2.541c2.038-.937 4.32-.833 6.261.288 1.942 1.121 3.174 3.045 3.38 5.278l.526 5.7c-.967 2.577-1.23 4.929-1.462 7.004-.008.072-.016.141-.024.212-1.328-.398-4.729-1.03-8.491 1.342-.467.294-.607.912-.313 1.379.19.302.515.467.847.467.182 0 .367-.05.532-.154 3.627-2.286 6.766-1.172 7.166-1.013-.482 3.061-1.501 5.512-5.743 8.011-.476.28-.634.894-.354 1.369.186.316.52.492.862.492.172 0 .347-.045.507-.139 6.085-3.585 6.528-7.548 6.996-11.743.223-1.993.458-4.052 1.273-6.311.015-.018.035-.031.049-.051l3.526-4.985c1.295-1.83 3.324-2.88 5.566-2.881 2.243 0 4.272 1.051 5.567 2.881l3.392 4.796c.208 1.213 1.356 6.594 5.891 11.009.194.189.446.283.698.283.26 0 .521-.102.716-.303.385-.396.377-1.028-.019-1.414-.901-.877-1.649-1.803-2.279-2.725 2.041.217 5.651 1.194 9.115 5.123.198.225.473.339.75.339.235 0 .471-.082.661-.25.415-.365.454-.997.089-1.411-4.815-5.46-9.963-5.902-11.839-5.859-1.322-2.568-1.747-4.746-1.826-5.215l.549-5.954c.206-2.233 1.438-4.157 3.38-5.278 1.943-1.122 4.226-1.226 6.261-.288l5.351 2.464c.945 1.342 1.968 2.404 2.897 3.357 2.346 2.407 4.042 4.146 3.295 8.944-.085.545.289 1.057.834 1.142.052.008.104.012.155.012.484 0 .91-.353.987-.847.397-2.552.17-4.437-.416-5.962 1.344.579 2.895 1.065 4.34 1.065.552 0 1-.447 1-1s-.448-1-1-1c-2.664 0-6.092-2.208-6.651-2.58-.36-.395-.734-.781-1.112-1.169-1.006-1.033-2.034-2.116-2.949-3.505l-2.412-5.238c-.938-2.037-.833-4.319.288-6.262 1.122-1.941 3.045-3.174 5.278-3.38l6.081-.561c.007-.001.013-.004.02-.005 1.78.557 3.445.826 4.969 1.059.575 9.852 10.884 13.258 10.992 13.292.101.032.203.047.304.047.423 0 .815-.271.952-.695.168-.525-.121-1.088-.646-1.257-.375-.121-8.78-2.944-9.552-11.056 3.306.596 5.882 1.618 8.366 6.243zm-21.667-9.06c-2.888.267-5.376 1.86-6.827 4.373-1.45 2.512-1.586 5.463-.373 8.097l1.422 3.088-3.087-1.422c-2.636-1.213-5.586-1.078-8.098.372s-4.105 3.938-4.371 6.827l-.313 3.384-1.962-2.774c-1.675-2.368-4.299-3.727-7.2-3.727-2.9.001-5.524 1.358-7.199 3.727l-1.963 2.774-.313-3.384c-.266-2.889-1.859-5.377-4.371-6.826-1.376-.795-2.883-1.194-4.398-1.194-1.251 0-2.508.272-3.7.821l-3.087 1.421 1.422-3.087c1.213-2.634 1.078-5.585-.373-8.097-1.45-2.513-3.938-4.106-6.827-4.373l-3.384-.312 2.775-1.963c2.368-1.675 3.726-4.299 3.726-7.199s-1.358-5.524-3.726-7.199l-2.775-1.963 3.384-.312c2.888-.267 5.376-1.86 6.827-4.373 1.45-2.512 1.586-5.463.373-8.097l-1.422-3.087 3.087 1.421c2.635 1.213 5.587 1.078 8.098-.373 2.512-1.449 4.105-3.938 4.371-6.826l.313-3.384 1.963 2.774c1.675 2.368 4.298 3.726 7.199 3.727 2.9 0 5.524-1.358 7.199-3.727l1.962-2.774.313 3.384c.266 2.889 1.859 5.377 4.371 6.827 2.512 1.449 5.462 1.586 8.098.372l3.087-1.422-1.422 3.088c-1.213 2.634-1.078 5.585.373 8.097 1.45 2.513 3.938 4.106 6.827 4.373l3.384.312-2.775 1.963c-2.368 1.675-3.726 4.299-3.726 7.199s1.358 5.524 3.726 7.199l2.775 1.963z"/></g></g></g></svg>