<svg id="Capa_1" enable-background="new 0 0 512.033 512.033" height="512" viewBox="0 0 512.033 512.033" width="512" xmlns="http://www.w3.org/2000/svg"><g><path d="m376.016 232.88c-34.69 0-68.07 13.46-93.07 37.22-31.437-9.674-66.581-5.993-95.93 11.57-9.562-64.966-11.076-120.478-11.31-139.05 6.44-5.311 19.72-15.23 39.669-25.2 39.83-19.92 40.29-75.08 40.29-77.42 0-6.39-4.04-12.08-10.08-14.17-3.029-1.05-74.869-25.83-116.919-25.83-2.72 0-5.38.74-7.71 2.14-40.643 24.386-40.786 74.28-39.646 90.613-6.027 11.481-22.854 45.583-39.754 98.577-18.95 59.4-41.54 154.91-41.54 272.55 0 4.13 1.7 8.08 4.71 10.91 35.004 33.04 101.616 37.766 149.51 37.2 35.928-.466 78.609-4.79 103.99-9.271l.21-.029c3.5-.58 30.96-5.341 51.41-17.12 20.15 11.359 42.82 17.31 66.17 17.31 74.99 0 136-60.56 136-135s-61.01-135-136-135z" fill="#ffddce"/><path d="m512.016 367.88c0 74.44-61.01 135-136 135-23.35 0-46.02-5.95-66.17-17.31-15.268 8.795-36.956 14.891-53.83 17.51v-237.93c9.18.6 18.19 2.26 26.93 4.949 25-23.76 58.38-37.22 93.07-37.22 74.99.001 136 60.561 136 135.001z" fill="#ffcbbc"/><path d="m399.016 184v144c0 8.28-6.72 15-15 15s-15-6.72-15-15v-144c0-8.28 6.72-15 15-15s15 6.72 15 15z" fill="#f9f9f9"/><path d="m399.016 184v144c0 8.28-6.72 15-15 15v-174c8.28 0 15 6.72 15 15z" fill="#e2dff4"/><path d="m431.016 15v169c0 8.28-6.72 15-15 15h-64c-8.28 0-15-6.72-15-15v-169c0-8.28 6.72-15 15-15h64c8.28 0 15 6.72 15 15z" fill="#6ba7ff"/><path d="m431.016 15v169c0 8.28-6.72 15-15 15h-32v-199h32c8.28 0 15 6.72 15 15z" fill="#5e69e2"/><path d="m463.016 15c0 8.28-6.72 15-15 15h-128c-8.28 0-15-6.72-15-15s6.72-15 15-15h128c8.28 0 15 6.72 15 15z" fill="#0d8ebc"/><path d="m463.016 15c0 8.28-6.72 15-15 15h-64v-30h64c8.28 0 15 6.72 15 15z" fill="#0a617d"/></g></svg>